<mxfile host="app.diagrams.net" modified="2020-08-25T05:49:14.717Z" agent="5.0 (Windows NT 10.0; Win64; x64) AppleWebKit/537.36 (KHTML, like Gecko) Chrome/84.0.4147.135 Safari/537.36" etag="ZSTdvIBouqLovOB60G9j" version="13.6.4" type="github" pages="3">
  <diagram name="Page-1" id="c9db0220-8083-56f3-ca83-edcdcd058819">
    <mxGraphModel dx="2170" dy="1125" grid="1" gridSize="10" guides="1" tooltips="1" connect="1" arrows="1" fold="1" page="1" pageScale="1.5" pageWidth="826" pageHeight="1169" background="#ffffff" math="0" shadow="0">
      <root>
        <mxCell id="0" style=";html=1;" />
        <mxCell id="1" style=";html=1;" parent="0" />
        <mxCell id="3d76a8aef4d5c911-1" value="" style="html=1;shadow=0;dashed=0;shape=mxgraph.bootstrap.rect;fillColor=#222222;strokeColor=none;whiteSpace=wrap;rounded=0;fontSize=12;fontColor=#000000;align=center;" parent="1" vertex="1">
          <mxGeometry x="40" y="70" width="1150" height="40" as="geometry" />
        </mxCell>
        <mxCell id="3d76a8aef4d5c911-2" value="Home" style="html=1;shadow=0;dashed=0;fillColor=none;strokeColor=none;shape=mxgraph.bootstrap.rect;fontColor=#999999;fontSize=14;whiteSpace=wrap;" parent="3d76a8aef4d5c911-1" vertex="1">
          <mxGeometry width="115" height="40" as="geometry" />
        </mxCell>
        <mxCell id="3d76a8aef4d5c911-3" value="About" style="html=1;shadow=0;dashed=0;shape=mxgraph.bootstrap.rect;fillColor=#000000;strokeColor=none;fontColor=#ffffff;spacingRight=30;whiteSpace=wrap;" parent="3d76a8aef4d5c911-1" vertex="1">
          <mxGeometry x="116" width="129.375" height="40" as="geometry" />
        </mxCell>
        <mxCell id="3d76a8aef4d5c911-4" value="84" style="html=1;shadow=0;dashed=0;shape=mxgraph.bootstrap.rrect;rSize=8;fillColor=#ff0000;strokeColor=none;fontColor=#ffffff;whiteSpace=wrap;" parent="3d76a8aef4d5c911-3" vertex="1">
          <mxGeometry x="1" y="0.5" width="25" height="16" relative="1" as="geometry">
            <mxPoint x="-30" y="-8" as="offset" />
          </mxGeometry>
        </mxCell>
        <mxCell id="3d76a8aef4d5c911-5" value="Career" style="html=1;shadow=0;dashed=0;fillColor=none;strokeColor=none;shape=mxgraph.bootstrap.rect;fontColor=#999999;spacingRight=30;whiteSpace=wrap;" parent="3d76a8aef4d5c911-1" vertex="1">
          <mxGeometry x="244.375" width="158.125" height="40" as="geometry" />
        </mxCell>
        <mxCell id="3d76a8aef4d5c911-6" value="42" style="html=1;shadow=0;dashed=0;shape=mxgraph.bootstrap.rrect;rSize=8;fillColor=#ff0000;strokeColor=none;fontColor=#ffffff;whiteSpace=wrap;" parent="3d76a8aef4d5c911-5" vertex="1">
          <mxGeometry x="1" y="0.5" width="25" height="16" relative="1" as="geometry">
            <mxPoint x="-30" y="-8" as="offset" />
          </mxGeometry>
        </mxCell>
        <mxCell id="3d76a8aef4d5c911-7" value="Contacts" style="html=1;shadow=0;dashed=0;fillColor=none;strokeColor=none;shape=mxgraph.bootstrap.rect;fontColor=#999999;whiteSpace=wrap;" parent="3d76a8aef4d5c911-1" vertex="1">
          <mxGeometry x="402.5" width="115" height="40" as="geometry" />
        </mxCell>
        <mxCell id="3d76a8aef4d5c911-8" value="Settings" style="html=1;shadow=0;dashed=0;fillColor=none;strokeColor=none;shape=mxgraph.bootstrap.rect;fontColor=#999999;whiteSpace=wrap;" parent="3d76a8aef4d5c911-1" vertex="1">
          <mxGeometry x="517.5" width="100.625" height="40" as="geometry" />
        </mxCell>
        <mxCell id="3d76a8aef4d5c911-9" value="Profile" style="html=1;shadow=0;dashed=0;fillColor=none;strokeColor=none;shape=mxgraph.bootstrap.rect;fontColor=#999999;whiteSpace=wrap;" parent="3d76a8aef4d5c911-1" vertex="1">
          <mxGeometry x="948.75" width="100.625" height="40" as="geometry" />
        </mxCell>
        <mxCell id="3d76a8aef4d5c911-10" value="Log Out" style="html=1;shadow=0;dashed=0;fillColor=none;strokeColor=none;shape=mxgraph.bootstrap.rect;fontColor=#999999;whiteSpace=wrap;" parent="3d76a8aef4d5c911-1" vertex="1">
          <mxGeometry x="1049.375" width="100.625" height="40" as="geometry" />
        </mxCell>
        <mxCell id="3d76a8aef4d5c911-11" value="" style="html=1;shadow=0;dashed=0;shape=mxgraph.bootstrap.rrect;rSize=1;strokeColor=#dddddd;rounded=0;fontSize=12;align=center;resizeWidth=1;resizeHeight=1;" parent="1" vertex="1">
          <mxGeometry x="860" y="150" width="330" height="420" as="geometry" />
        </mxCell>
        <mxCell id="3d76a8aef4d5c911-12" value="200x200" style="shape=rect;fontSize=24;fillColor=#f0f0f0;strokeColor=none;fontColor=#999999;whiteSpace=wrap;rounded=1;" parent="3d76a8aef4d5c911-11" vertex="1">
          <mxGeometry x="62.5" y="10.5" width="205" height="209.5" as="geometry" />
        </mxCell>
        <mxCell id="3d76a8aef4d5c911-13" value="Candidate Name" style="html=1;shadow=0;dashed=0;shape=mxgraph.bootstrap.anchor;fontSize=26;align=left;whiteSpace=wrap;" parent="3d76a8aef4d5c911-11" vertex="1">
          <mxGeometry x="15" y="219.99999999999997" width="300" height="42" as="geometry" />
        </mxCell>
        <mxCell id="3d76a8aef4d5c911-14" value="Description:&lt;br&gt;&lt;br&gt;Cras justo odio, dapibus ac facilisis in, egestas eget quam. Donec id elit non mi porta gravida at eget metus. Nullam id dolor id nibh ultricies vehicula ut id elit." style="html=1;shadow=0;dashed=0;shape=mxgraph.bootstrap.anchor;strokeColor=#dddddd;whiteSpace=wrap;align=left;verticalAlign=top;fontSize=14;whiteSpace=wrap;" parent="3d76a8aef4d5c911-11" vertex="1">
          <mxGeometry x="15" y="260.0014634146342" width="300" height="84" as="geometry" />
        </mxCell>
        <mxCell id="3d76a8aef4d5c911-15" value="Button" style="html=1;shadow=0;dashed=0;shape=mxgraph.bootstrap.rrect;rSize=5;fontSize=16;fillColor=#3D8BCD;strokeColor=none;fontColor=#ffffff;whiteSpace=wrap;" parent="3d76a8aef4d5c911-11" vertex="1">
          <mxGeometry y="1" width="80" height="40" relative="1" as="geometry">
            <mxPoint x="15" y="-50" as="offset" />
          </mxGeometry>
        </mxCell>
        <mxCell id="3d76a8aef4d5c911-16" value="Button" style="html=1;shadow=0;dashed=0;shape=mxgraph.bootstrap.rrect;rSize=5;fontSize=16;strokeColor=#dddddd;whiteSpace=wrap;" parent="3d76a8aef4d5c911-11" vertex="1">
          <mxGeometry y="1" width="80" height="40" relative="1" as="geometry">
            <mxPoint x="110" y="-50" as="offset" />
          </mxGeometry>
        </mxCell>
        <mxCell id="3d76a8aef4d5c911-17" value="Template name" style="html=1;shadow=0;dashed=0;shape=mxgraph.bootstrap.rect;strokeColor=none;fillColor=none;fontColor=#999999;align=left;spacingLeft=5;whiteSpace=wrap;rounded=0;" parent="1" vertex="1">
          <mxGeometry x="40" y="130" width="200" height="20" as="geometry" />
        </mxCell>
        <mxCell id="3d76a8aef4d5c911-18" value="Uncompleted Profile" style="html=1;shadow=0;dashed=0;shape=mxgraph.bootstrap.rrect;rSize=5;strokeColor=#dddddd;;align=left;spacingLeft=10;fontSize=16;whiteSpace=wrap;rounded=0;" parent="1" vertex="1">
          <mxGeometry x="40" y="150" width="800" height="40" as="geometry" />
        </mxCell>
        <mxCell id="3d76a8aef4d5c911-19" value="Subject" style="html=1;shadow=0;dashed=0;shape=mxgraph.bootstrap.rect;strokeColor=none;fillColor=none;fontColor=#999999;align=left;spacingLeft=5;whiteSpace=wrap;rounded=0;" parent="1" vertex="1">
          <mxGeometry x="40" y="210" width="200" height="20" as="geometry" />
        </mxCell>
        <mxCell id="3d76a8aef4d5c911-20" value="Hello, %USER_FULL_NAME%" style="html=1;shadow=0;dashed=0;shape=mxgraph.bootstrap.rrect;rSize=5;strokeColor=#dddddd;align=left;spacingLeft=10;fontSize=16;whiteSpace=wrap;rounded=0;" parent="1" vertex="1">
          <mxGeometry x="40" y="230" width="800" height="40" as="geometry" />
        </mxCell>
        <mxCell id="3d76a8aef4d5c911-21" value="Insert System Variable" style="html=1;shadow=0;dashed=0;shape=mxgraph.bootstrap.rect;strokeColor=none;fillColor=none;align=right;fontSize=10;whiteSpace=wrap;rounded=0;" parent="1" vertex="1">
          <mxGeometry x="690" y="210" width="120" height="20" as="geometry" />
        </mxCell>
        <mxCell id="3d76a8aef4d5c911-22" value="" style="shape=triangle;strokeColor=none;fillColor=#000000;direction=south;rounded=0;shadow=1;fontSize=12;fontColor=#000000;align=center;html=1;" parent="1" vertex="1">
          <mxGeometry x="812" y="217" width="8" height="4" as="geometry" />
        </mxCell>
        <mxCell id="3d76a8aef4d5c911-23" value="Message" style="html=1;shadow=0;dashed=0;shape=mxgraph.bootstrap.rect;strokeColor=none;fillColor=none;fontColor=#999999;align=left;spacingLeft=5;whiteSpace=wrap;rounded=0;" parent="1" vertex="1">
          <mxGeometry x="40" y="290" width="200" height="20" as="geometry" />
        </mxCell>
        <mxCell id="3d76a8aef4d5c911-24" value="Hello %USER_FULL_NAME%!&#xa;&#xa;At vero eos et accusamus et iusto odio dignissimos ducimus, qui blanditiis praesentium voluptatum deleniti atque corrupti, quosdolores et quas molestias excepturi sint, obcaecati cupiditate non provident, similique sunt in culpa, qui officia deserunt mollitiaanimi, id est laborum et dolorum fuga. Et harum quidem rerum facilis est et expedita distinctio. Nam libero tempore, cum solutanobis est eligendi optio, cumque nihil impedit, quo minus id, quod maxime placeat, facere possimus, omnis voluptas assumendaest, omnis dolor repellendus." style="html=1;shadow=0;dashed=0;shape=mxgraph.bootstrap.rrect;rSize=5;fontSize=12;strokeColor=#dddddd;align=left;spacing=10;verticalAlign=top;whiteSpace=wrap;rounded=0;" parent="1" vertex="1">
          <mxGeometry x="40" y="310" width="800" height="240" as="geometry" />
        </mxCell>
        <mxCell id="3d76a8aef4d5c911-25" value="Insert System Variable" style="html=1;shadow=0;dashed=0;shape=mxgraph.bootstrap.rect;strokeColor=none;fillColor=none;align=right;fontSize=10;whiteSpace=wrap;rounded=0;" parent="1" vertex="1">
          <mxGeometry x="690" y="290" width="120" height="20" as="geometry" />
        </mxCell>
        <mxCell id="3d76a8aef4d5c911-26" value="" style="shape=triangle;strokeColor=none;fillColor=#000000;direction=south;rounded=0;shadow=1;fontSize=12;fontColor=#000000;align=center;html=1;" parent="1" vertex="1">
          <mxGeometry x="812" y="297" width="8" height="4" as="geometry" />
        </mxCell>
        <mxCell id="3d76a8aef4d5c911-27" value="%USER_FULL_NAME%&#xa;%USER_EMAIL%&#xa;%USER_PROFILE_COMPLETENESS%&#xa;%USER_NUM_SUCCESS_TRADES%&#xa;%USER_FULL_NAME%&#xa;%USER_EMAIL%&#xa;%USER_PROFILE_COMPLETENESS%&#xa;%USER_NUM_SUCCESS_SELLS%" style="html=1;shadow=0;dashed=0;shape=mxgraph.bootstrap.rrect;fontSize=12;rSize=2;strokeColor=#dddddd;align=left;verticalAlign=top;spacing=10;shadow=1;whiteSpace=wrap;rounded=0;" parent="1" vertex="1">
          <mxGeometry x="590" y="305" width="240" height="140" as="geometry" />
        </mxCell>
        <mxCell id="3d76a8aef4d5c911-28" value="Message Type" style="html=1;shadow=0;dashed=0;shape=mxgraph.bootstrap.rect;strokeColor=none;fillColor=none;fontColor=#999999;align=left;spacingLeft=5;whiteSpace=wrap;rounded=0;" parent="1" vertex="1">
          <mxGeometry x="40" y="570" width="200" height="20" as="geometry" />
        </mxCell>
        <mxCell id="3d76a8aef4d5c911-29" value="Email + Push" style="html=1;shadow=0;dashed=0;shape=mxgraph.bootstrap.rrect;rSize=5;strokeColor=#dddddd;align=left;spacingLeft=10;fontSize=16;whiteSpace=wrap;rounded=0;" parent="1" vertex="1">
          <mxGeometry x="40" y="590" width="390" height="40" as="geometry" />
        </mxCell>
        <mxCell id="3d76a8aef4d5c911-30" value="" style="shape=triangle;strokeColor=none;fillColor=#000000;direction=south;rounded=0;shadow=1;fontSize=12;fontColor=#000000;align=center;html=1;" parent="1" vertex="1">
          <mxGeometry x="410" y="607" width="10" height="5" as="geometry" />
        </mxCell>
        <mxCell id="3d76a8aef4d5c911-31" value="Tap target" style="html=1;shadow=0;dashed=0;shape=mxgraph.bootstrap.rect;strokeColor=none;fillColor=none;fontColor=#999999;align=left;spacingLeft=5;whiteSpace=wrap;rounded=0;" parent="1" vertex="1">
          <mxGeometry x="450" y="570" width="200" height="20" as="geometry" />
        </mxCell>
        <mxCell id="3d76a8aef4d5c911-32" value="Profile Screen" style="html=1;shadow=0;dashed=0;shape=mxgraph.bootstrap.rrect;rSize=5;strokeColor=#dddddd;align=left;spacingLeft=10;fontSize=16;whiteSpace=wrap;rounded=0;" parent="1" vertex="1">
          <mxGeometry x="450" y="590" width="390" height="40" as="geometry" />
        </mxCell>
        <mxCell id="3d76a8aef4d5c911-33" value="" style="shape=triangle;strokeColor=none;fillColor=#000000;direction=south;rounded=0;shadow=1;fontSize=12;fontColor=#000000;align=center;html=1;" parent="1" vertex="1">
          <mxGeometry x="820" y="607" width="10" height="5" as="geometry" />
        </mxCell>
        <mxCell id="3d76a8aef4d5c911-34" value="Send to Group" style="html=1;shadow=0;dashed=0;shape=mxgraph.bootstrap.rect;strokeColor=none;fillColor=none;fontColor=#999999;align=left;spacingLeft=5;whiteSpace=wrap;rounded=0;" parent="1" vertex="1">
          <mxGeometry x="40" y="650" width="200" height="20" as="geometry" />
        </mxCell>
        <mxCell id="3d76a8aef4d5c911-35" value="Top Management" style="html=1;shadow=0;dashed=0;shape=mxgraph.bootstrap.checkbox;fontSize=12;strokeColor=#999999;align=left;labelPosition=right;spacingLeft=5;rounded=0;" parent="1" vertex="1">
          <mxGeometry x="50" y="673" width="14" height="14" as="geometry" />
        </mxCell>
        <mxCell id="3d76a8aef4d5c911-36" value="Marketing Department" style="html=1;shadow=0;dashed=0;shape=mxgraph.bootstrap.rrect;fontSize=12;rSize=3;strokeColor=#999999;align=left;labelPosition=right;spacingLeft=5;rounded=0;" parent="1" vertex="1">
          <mxGeometry x="50" y="693" width="14" height="14" as="geometry" />
        </mxCell>
        <mxCell id="3d76a8aef4d5c911-37" value="Design Department" style="html=1;shadow=0;dashed=0;shape=mxgraph.bootstrap.checkbox;fontSize=12;strokeColor=#999999;align=left;labelPosition=right;spacingLeft=5;rounded=0;" parent="1" vertex="1">
          <mxGeometry x="50" y="713" width="14" height="14" as="geometry" />
        </mxCell>
        <mxCell id="3d76a8aef4d5c911-38" value="Financial Department" style="html=1;shadow=0;dashed=0;shape=mxgraph.bootstrap.rrect;fontSize=12;rSize=3;strokeColor=#999999;align=left;labelPosition=right;spacingLeft=5;rounded=0;" parent="1" vertex="1">
          <mxGeometry x="50" y="733" width="14" height="14" as="geometry" />
        </mxCell>
        <mxCell id="3d76a8aef4d5c911-39" value="Supply Department" style="html=1;shadow=0;dashed=0;shape=mxgraph.bootstrap.rrect;fontSize=12;rSize=3;strokeColor=#999999;align=left;labelPosition=right;spacingLeft=5;rounded=0;" parent="1" vertex="1">
          <mxGeometry x="50" y="753" width="14" height="14" as="geometry" />
        </mxCell>
        <mxCell id="3d76a8aef4d5c911-40" value="Set Type" style="html=1;shadow=0;dashed=0;shape=mxgraph.bootstrap.rect;strokeColor=none;fillColor=none;fontColor=#999999;align=left;spacingLeft=5;whiteSpace=wrap;rounded=0;" parent="1" vertex="1">
          <mxGeometry x="450" y="650" width="200" height="20" as="geometry" />
        </mxCell>
        <mxCell id="3d76a8aef4d5c911-41" value="" style="shape=ellipse;dashed=0;strokeColor=#999999;fillColor=#ffffff;html=1;rounded=0;shadow=1;fontSize=12;fontColor=#000000;align=center;" parent="1" vertex="1">
          <mxGeometry x="460" y="673" width="14" height="14" as="geometry" />
        </mxCell>
        <mxCell id="3d76a8aef4d5c911-42" value="News" style="html=1;shadow=0;dashed=0;shape=mxgraph.bootstrap.rrect;align=center;rSize=3;strokeColor=none;fillColor=#58B957;fontColor=#ffffff;fontStyle=1;fontSize=10;whiteSpace=wrap;rounded=0;" parent="1" vertex="1">
          <mxGeometry x="480" y="673" width="40" height="14" as="geometry" />
        </mxCell>
        <mxCell id="3d76a8aef4d5c911-43" value="" style="html=1;shadow=0;dashed=0;shape=mxgraph.bootstrap.radioButton;strokeColor=#999999;fillColor=#ffffff;rounded=0;fontSize=12;fontColor=#000000;align=center;" parent="1" vertex="1">
          <mxGeometry x="460" y="693" width="14" height="14" as="geometry" />
        </mxCell>
        <mxCell id="3d76a8aef4d5c911-44" value="Reports" style="html=1;shadow=0;dashed=0;shape=mxgraph.bootstrap.rrect;align=center;rSize=3;strokeColor=none;fillColor=#55BFE0;fontColor=#ffffff;fontStyle=1;fontSize=10;whiteSpace=wrap;rounded=0;" parent="1" vertex="1">
          <mxGeometry x="480" y="693" width="50" height="14" as="geometry" />
        </mxCell>
        <mxCell id="3d76a8aef4d5c911-45" value="" style="shape=ellipse;dashed=0;strokeColor=#999999;fillColor=#ffffff;html=1;rounded=0;shadow=1;fontSize=12;fontColor=#000000;align=center;" parent="1" vertex="1">
          <mxGeometry x="460" y="713" width="14" height="14" as="geometry" />
        </mxCell>
        <mxCell id="3d76a8aef4d5c911-46" value="Documents" style="html=1;shadow=0;dashed=0;shape=mxgraph.bootstrap.rrect;align=center;rSize=3;strokeColor=none;fillColor=#EFAC43;fontColor=#ffffff;fontStyle=1;fontSize=10;whiteSpace=wrap;rounded=0;" parent="1" vertex="1">
          <mxGeometry x="480" y="713" width="70" height="14" as="geometry" />
        </mxCell>
        <mxCell id="3d76a8aef4d5c911-47" value="" style="shape=ellipse;dashed=0;strokeColor=#999999;fillColor=#ffffff;html=1;rounded=0;shadow=1;fontSize=12;fontColor=#000000;align=center;" parent="1" vertex="1">
          <mxGeometry x="460" y="733" width="14" height="14" as="geometry" />
        </mxCell>
        <mxCell id="3d76a8aef4d5c911-48" value="Media" style="html=1;shadow=0;dashed=0;shape=mxgraph.bootstrap.rrect;align=center;rSize=3;strokeColor=none;fillColor=#3D8BCD;fontColor=#ffffff;fontStyle=1;fontSize=10;whiteSpace=wrap;rounded=0;" parent="1" vertex="1">
          <mxGeometry x="480" y="733" width="40" height="14" as="geometry" />
        </mxCell>
        <mxCell id="3d76a8aef4d5c911-49" value="" style="shape=ellipse;dashed=0;strokeColor=#999999;fillColor=#ffffff;html=1;rounded=0;shadow=1;fontSize=12;fontColor=#000000;align=center;" parent="1" vertex="1">
          <mxGeometry x="460" y="753" width="14" height="14" as="geometry" />
        </mxCell>
        <mxCell id="3d76a8aef4d5c911-50" value="Text" style="html=1;shadow=0;dashed=0;shape=mxgraph.bootstrap.rrect;align=center;rSize=3;strokeColor=none;fillColor=#999999;fontColor=#ffffff;fontStyle=1;fontSize=10;whiteSpace=wrap;rounded=0;" parent="1" vertex="1">
          <mxGeometry x="480" y="753" width="30" height="14" as="geometry" />
        </mxCell>
        <mxCell id="3d76a8aef4d5c911-51" value="Save Template" style="html=1;shadow=0;dashed=0;shape=mxgraph.bootstrap.rrect;align=center;rSize=5;strokeColor=none;fillColor=#3D8BCD;fontColor=#ffffff;fontSize=16;whiteSpace=wrap;rounded=0;" parent="1" vertex="1">
          <mxGeometry x="40" y="810" width="150" height="40" as="geometry" />
        </mxCell>
        <mxCell id="3d76a8aef4d5c911-52" value="Cancel" style="html=1;shadow=0;dashed=0;shape=mxgraph.bootstrap.rrect;align=center;rSize=5;strokeColor=#dddddd;fontSize=16;whiteSpace=wrap;rounded=0;" parent="1" vertex="1">
          <mxGeometry x="210" y="810" width="100" height="40" as="geometry" />
        </mxCell>
        <mxCell id="3d76a8aef4d5c911-53" value="Delete Template" style="html=1;shadow=0;dashed=0;shape=mxgraph.bootstrap.rrect;align=center;rSize=5;strokeColor=none;fillColor=#DB524C;fontColor=#ffffff;fontSize=16;whiteSpace=wrap;rounded=0;" parent="1" vertex="1">
          <mxGeometry x="670" y="810" width="170" height="40" as="geometry" />
        </mxCell>
        <mxCell id="3d76a8aef4d5c911-54" value="" style="html=1;shadow=0;dashed=0;shape=mxgraph.bootstrap.rrect;rSize=5;strokeColor=#dddddd;rounded=0;fontSize=12;align=center;" parent="1" vertex="1">
          <mxGeometry x="860" y="600" width="330" height="400" as="geometry" />
        </mxCell>
        <mxCell id="3d76a8aef4d5c911-55" value="320x200" style="shape=rect;fontSize=24;fillColor=#f0f0f0;strokeColor=none;fontColor=#999999;whiteSpace=wrap;" parent="3d76a8aef4d5c911-54" vertex="1">
          <mxGeometry x="5" y="5" width="320" height="200" as="geometry" />
        </mxCell>
        <mxCell id="3d76a8aef4d5c911-56" value="Thumbnail label" style="html=1;shadow=0;dashed=0;shape=mxgraph.bootstrap.anchor;fontSize=26;align=left;whiteSpace=wrap;" parent="3d76a8aef4d5c911-54" vertex="1">
          <mxGeometry x="15" y="220" width="300" height="40" as="geometry" />
        </mxCell>
        <mxCell id="3d76a8aef4d5c911-57" value="Cras justo odio, dapibus ac facilisis in, egestas eget quam. Donec id elit non mi porta gravida at eget metus. Nullam id dolor id nibh ultricies vehicula ut id elit." style="html=1;shadow=0;dashed=0;shape=mxgraph.bootstrap.anchor;strokeColor=#dddddd;whiteSpace=wrap;align=left;verticalAlign=top;fontSize=14;whiteSpace=wrap;" parent="3d76a8aef4d5c911-54" vertex="1">
          <mxGeometry x="15" y="260" width="300" height="80" as="geometry" />
        </mxCell>
        <mxCell id="3d76a8aef4d5c911-58" value="Button" style="html=1;shadow=0;dashed=0;shape=mxgraph.bootstrap.rrect;rSize=5;fontSize=16;fillColor=#3D8BCD;strokeColor=none;fontColor=#ffffff;whiteSpace=wrap;" parent="3d76a8aef4d5c911-54" vertex="1">
          <mxGeometry y="1" width="80" height="40" relative="1" as="geometry">
            <mxPoint x="15" y="-60" as="offset" />
          </mxGeometry>
        </mxCell>
        <mxCell id="3d76a8aef4d5c911-59" value="Button" style="html=1;shadow=0;dashed=0;shape=mxgraph.bootstrap.rrect;rSize=5;fontSize=16;strokeColor=#dddddd;whiteSpace=wrap;" parent="3d76a8aef4d5c911-54" vertex="1">
          <mxGeometry y="1" width="80" height="40" relative="1" as="geometry">
            <mxPoint x="100" y="-60" as="offset" />
          </mxGeometry>
        </mxCell>
      </root>
    </mxGraphModel>
  </diagram>
  <diagram id="JynV3Cn_BAGlyi-x2R-V" name="Page-2">
    <mxGraphModel dx="2170" dy="1318" grid="1" gridSize="10" guides="1" tooltips="1" connect="1" arrows="1" fold="1" page="1" pageScale="1" pageWidth="827" pageHeight="1169" background="#ffffff" math="0" shadow="0">
      <root>
        <mxCell id="O4ANDgfvFVBwBjS4QOHz-0" />
        <mxCell id="O4ANDgfvFVBwBjS4QOHz-1" parent="O4ANDgfvFVBwBjS4QOHz-0" />
        <mxCell id="DmRDNTAlGFzrFGz1MmQI-0" value="" style="html=1;shadow=0;dashed=0;shape=mxgraph.bootstrap.rect;fillColor=#222222;strokeColor=none;whiteSpace=wrap;rounded=0;fontSize=12;fontColor=#000000;align=center;" vertex="1" parent="O4ANDgfvFVBwBjS4QOHz-1">
          <mxGeometry x="40" y="70" width="1580" height="40" as="geometry" />
        </mxCell>
        <mxCell id="DmRDNTAlGFzrFGz1MmQI-1" value="Home" style="html=1;shadow=0;dashed=0;fillColor=none;strokeColor=none;shape=mxgraph.bootstrap.rect;fontColor=#999999;fontSize=14;whiteSpace=wrap;" vertex="1" parent="DmRDNTAlGFzrFGz1MmQI-0">
          <mxGeometry width="158" height="40" as="geometry" />
        </mxCell>
        <mxCell id="DmRDNTAlGFzrFGz1MmQI-2" value="About" style="html=1;shadow=0;dashed=0;shape=mxgraph.bootstrap.rect;fillColor=#000000;strokeColor=none;fontColor=#ffffff;spacingRight=30;whiteSpace=wrap;" vertex="1" parent="DmRDNTAlGFzrFGz1MmQI-0">
          <mxGeometry x="159.37391304347827" width="177.75" height="40" as="geometry" />
        </mxCell>
        <mxCell id="DmRDNTAlGFzrFGz1MmQI-3" value="84" style="html=1;shadow=0;dashed=0;shape=mxgraph.bootstrap.rrect;rSize=8;fillColor=#ff0000;strokeColor=none;fontColor=#ffffff;whiteSpace=wrap;" vertex="1" parent="DmRDNTAlGFzrFGz1MmQI-2">
          <mxGeometry x="1" y="0.5" width="25" height="16" relative="1" as="geometry">
            <mxPoint x="-30" y="-8" as="offset" />
          </mxGeometry>
        </mxCell>
        <mxCell id="DmRDNTAlGFzrFGz1MmQI-4" value="Career" style="html=1;shadow=0;dashed=0;fillColor=none;strokeColor=none;shape=mxgraph.bootstrap.rect;fontColor=#999999;spacingRight=30;whiteSpace=wrap;" vertex="1" parent="DmRDNTAlGFzrFGz1MmQI-0">
          <mxGeometry x="335.75" width="217.25" height="40" as="geometry" />
        </mxCell>
        <mxCell id="DmRDNTAlGFzrFGz1MmQI-5" value="42" style="html=1;shadow=0;dashed=0;shape=mxgraph.bootstrap.rrect;rSize=8;fillColor=#ff0000;strokeColor=none;fontColor=#ffffff;whiteSpace=wrap;" vertex="1" parent="DmRDNTAlGFzrFGz1MmQI-4">
          <mxGeometry x="1" y="0.5" width="25" height="16" relative="1" as="geometry">
            <mxPoint x="-30" y="-8" as="offset" />
          </mxGeometry>
        </mxCell>
        <mxCell id="DmRDNTAlGFzrFGz1MmQI-6" value="Contacts" style="html=1;shadow=0;dashed=0;fillColor=none;strokeColor=none;shape=mxgraph.bootstrap.rect;fontColor=#999999;whiteSpace=wrap;" vertex="1" parent="DmRDNTAlGFzrFGz1MmQI-0">
          <mxGeometry x="553" width="158" height="40" as="geometry" />
        </mxCell>
        <mxCell id="DmRDNTAlGFzrFGz1MmQI-7" value="Settings" style="html=1;shadow=0;dashed=0;fillColor=none;strokeColor=none;shape=mxgraph.bootstrap.rect;fontColor=#999999;whiteSpace=wrap;" vertex="1" parent="DmRDNTAlGFzrFGz1MmQI-0">
          <mxGeometry x="711" width="138.25" height="40" as="geometry" />
        </mxCell>
        <mxCell id="DmRDNTAlGFzrFGz1MmQI-8" value="Profile" style="html=1;shadow=0;dashed=0;fillColor=none;strokeColor=none;shape=mxgraph.bootstrap.rect;fontColor=#999999;whiteSpace=wrap;" vertex="1" parent="DmRDNTAlGFzrFGz1MmQI-0">
          <mxGeometry x="1303.5" width="138.25" height="40" as="geometry" />
        </mxCell>
        <mxCell id="DmRDNTAlGFzrFGz1MmQI-9" value="Log Out" style="html=1;shadow=0;dashed=0;fillColor=none;strokeColor=none;shape=mxgraph.bootstrap.rect;fontColor=#999999;whiteSpace=wrap;" vertex="1" parent="DmRDNTAlGFzrFGz1MmQI-0">
          <mxGeometry x="1441.75" width="138.25" height="40" as="geometry" />
        </mxCell>
        <mxCell id="DmRDNTAlGFzrFGz1MmQI-10" value="" style="html=1;shadow=0;dashed=0;shape=mxgraph.bootstrap.rrect;rSize=1;rounded=0;fontSize=12;align=center;resizeWidth=1;resizeHeight=1;strokeColor=#222222;" vertex="1" parent="O4ANDgfvFVBwBjS4QOHz-1">
          <mxGeometry x="1290" y="140" width="330" height="420" as="geometry" />
        </mxCell>
        <mxCell id="DmRDNTAlGFzrFGz1MmQI-11" value="Candidate &#xa;image" style="shape=rect;fontSize=24;fillColor=#f0f0f0;strokeColor=none;fontColor=#999999;whiteSpace=wrap;rounded=1;" vertex="1" parent="DmRDNTAlGFzrFGz1MmQI-10">
          <mxGeometry x="62.5" y="10.5" width="205" height="199.5" as="geometry" />
        </mxCell>
        <mxCell id="DmRDNTAlGFzrFGz1MmQI-13" value="&lt;b&gt;A&amp;nbsp; short description about yourself:&lt;/b&gt;" style="html=1;shadow=0;dashed=0;shape=mxgraph.bootstrap.anchor;strokeColor=#dddddd;whiteSpace=wrap;align=left;verticalAlign=top;fontSize=14;whiteSpace=wrap;" vertex="1" parent="DmRDNTAlGFzrFGz1MmQI-10">
          <mxGeometry x="15" y="243.15789473684214" width="300" height="33.15789473684211" as="geometry" />
        </mxCell>
        <mxCell id="DmRDNTAlGFzrFGz1MmQI-14" value="Upload photo" style="html=1;shadow=0;dashed=0;shape=mxgraph.bootstrap.rrect;rSize=5;fontSize=16;fillColor=#3D8BCD;strokeColor=none;fontColor=#ffffff;whiteSpace=wrap;" vertex="1" parent="DmRDNTAlGFzrFGz1MmQI-10">
          <mxGeometry y="1" width="130" height="40" relative="1" as="geometry">
            <mxPoint x="15" y="-50" as="offset" />
          </mxGeometry>
        </mxCell>
        <mxCell id="DmRDNTAlGFzrFGz1MmQI-112" value="&lt;font color=&quot;#b3b3b3&quot;&gt;&lt;b&gt;Description&lt;/b&gt;&lt;/font&gt;" style="rounded=1;whiteSpace=wrap;html=1;shadow=0;strokeColor=#000000;strokeWidth=1;fontSize=14;fontColor=#000000;fillColor=#FFFFFF;" vertex="1" parent="DmRDNTAlGFzrFGz1MmQI-10">
          <mxGeometry x="15" y="276.32" width="295" height="83.68" as="geometry" />
        </mxCell>
        <mxCell id="DmRDNTAlGFzrFGz1MmQI-113" style="edgeStyle=orthogonalEdgeStyle;rounded=0;orthogonalLoop=1;jettySize=auto;html=1;exitX=0.5;exitY=1;exitDx=0;exitDy=0;fontSize=14;fontColor=#000000;" edge="1" parent="DmRDNTAlGFzrFGz1MmQI-10" source="DmRDNTAlGFzrFGz1MmQI-11" target="DmRDNTAlGFzrFGz1MmQI-11">
          <mxGeometry relative="1" as="geometry" />
        </mxCell>
        <mxCell id="DmRDNTAlGFzrFGz1MmQI-16" value="&lt;b style=&quot;font-size: 24px;&quot;&gt;&lt;font style=&quot;font-size: 24px;&quot;&gt;Personnal Details&lt;/font&gt;&lt;/b&gt;" style="html=1;shadow=0;dashed=0;shape=mxgraph.bootstrap.rect;strokeColor=none;fillColor=none;fontColor=#999999;align=left;spacingLeft=5;whiteSpace=wrap;rounded=0;fontSize=24;" vertex="1" parent="O4ANDgfvFVBwBjS4QOHz-1">
          <mxGeometry x="40" y="130" width="220" height="20" as="geometry" />
        </mxCell>
        <mxCell id="DmRDNTAlGFzrFGz1MmQI-17" value="&lt;span style=&quot;color: rgb(153 , 153 , 153) ; font-size: 12px&quot;&gt;First Name&lt;/span&gt;" style="html=1;shadow=0;dashed=0;shape=mxgraph.bootstrap.rrect;rSize=5;strokeColor=#dddddd;;align=left;spacingLeft=10;fontSize=16;whiteSpace=wrap;rounded=0;" vertex="1" parent="O4ANDgfvFVBwBjS4QOHz-1">
          <mxGeometry x="40" y="200" width="320" height="40" as="geometry" />
        </mxCell>
        <mxCell id="DmRDNTAlGFzrFGz1MmQI-18" value="Subject" style="html=1;shadow=0;dashed=0;shape=mxgraph.bootstrap.rect;strokeColor=none;fillColor=none;fontColor=#999999;align=left;spacingLeft=5;whiteSpace=wrap;rounded=0;" vertex="1" parent="O4ANDgfvFVBwBjS4QOHz-1">
          <mxGeometry x="58" y="1340" width="200" height="20" as="geometry" />
        </mxCell>
        <mxCell id="DmRDNTAlGFzrFGz1MmQI-19" value="Hello, %USER_FULL_NAME%" style="html=1;shadow=0;dashed=0;shape=mxgraph.bootstrap.rrect;rSize=5;strokeColor=#dddddd;align=left;spacingLeft=10;fontSize=16;whiteSpace=wrap;rounded=0;" vertex="1" parent="O4ANDgfvFVBwBjS4QOHz-1">
          <mxGeometry x="52" y="1370" width="800" height="40" as="geometry" />
        </mxCell>
        <mxCell id="DmRDNTAlGFzrFGz1MmQI-20" value="Insert System Variable" style="html=1;shadow=0;dashed=0;shape=mxgraph.bootstrap.rect;strokeColor=none;fillColor=none;align=right;fontSize=10;whiteSpace=wrap;rounded=0;" vertex="1" parent="O4ANDgfvFVBwBjS4QOHz-1">
          <mxGeometry x="708" y="1340" width="120" height="20" as="geometry" />
        </mxCell>
        <mxCell id="DmRDNTAlGFzrFGz1MmQI-21" value="" style="shape=triangle;strokeColor=none;fillColor=#000000;direction=south;rounded=0;shadow=1;fontSize=12;fontColor=#000000;align=center;html=1;" vertex="1" parent="O4ANDgfvFVBwBjS4QOHz-1">
          <mxGeometry x="830" y="1347" width="8" height="4" as="geometry" />
        </mxCell>
        <mxCell id="DmRDNTAlGFzrFGz1MmQI-22" value="Message" style="html=1;shadow=0;dashed=0;shape=mxgraph.bootstrap.rect;strokeColor=none;fillColor=none;fontColor=#999999;align=left;spacingLeft=5;whiteSpace=wrap;rounded=0;" vertex="1" parent="O4ANDgfvFVBwBjS4QOHz-1">
          <mxGeometry x="52" y="1430" width="200" height="20" as="geometry" />
        </mxCell>
        <mxCell id="DmRDNTAlGFzrFGz1MmQI-23" value="Hello %USER_FULL_NAME%!&#xa;&#xa;At vero eos et accusamus et iusto odio dignissimos ducimus, qui blanditiis praesentium voluptatum deleniti atque corrupti, quosdolores et quas molestias excepturi sint, obcaecati cupiditate non provident, similique sunt in culpa, qui officia deserunt mollitiaanimi, id est laborum et dolorum fuga. Et harum quidem rerum facilis est et expedita distinctio. Nam libero tempore, cum solutanobis est eligendi optio, cumque nihil impedit, quo minus id, quod maxime placeat, facere possimus, omnis voluptas assumendaest, omnis dolor repellendus." style="html=1;shadow=0;dashed=0;shape=mxgraph.bootstrap.rrect;rSize=5;fontSize=12;strokeColor=#dddddd;align=left;spacing=10;verticalAlign=top;whiteSpace=wrap;rounded=0;" vertex="1" parent="O4ANDgfvFVBwBjS4QOHz-1">
          <mxGeometry x="52" y="1450" width="800" height="240" as="geometry" />
        </mxCell>
        <mxCell id="DmRDNTAlGFzrFGz1MmQI-24" value="Insert System Variable" style="html=1;shadow=0;dashed=0;shape=mxgraph.bootstrap.rect;strokeColor=none;fillColor=none;align=right;fontSize=10;whiteSpace=wrap;rounded=0;" vertex="1" parent="O4ANDgfvFVBwBjS4QOHz-1">
          <mxGeometry x="702" y="1430" width="120" height="20" as="geometry" />
        </mxCell>
        <mxCell id="DmRDNTAlGFzrFGz1MmQI-25" value="" style="shape=triangle;strokeColor=none;fillColor=#000000;direction=south;rounded=0;shadow=1;fontSize=12;fontColor=#000000;align=center;html=1;" vertex="1" parent="O4ANDgfvFVBwBjS4QOHz-1">
          <mxGeometry x="824" y="1437" width="8" height="4" as="geometry" />
        </mxCell>
        <mxCell id="DmRDNTAlGFzrFGz1MmQI-26" value="%USER_FULL_NAME%&#xa;%USER_EMAIL%&#xa;%USER_PROFILE_COMPLETENESS%&#xa;%USER_NUM_SUCCESS_TRADES%&#xa;%USER_FULL_NAME%&#xa;%USER_EMAIL%&#xa;%USER_PROFILE_COMPLETENESS%&#xa;%USER_NUM_SUCCESS_SELLS%" style="html=1;shadow=0;dashed=0;shape=mxgraph.bootstrap.rrect;fontSize=12;rSize=2;strokeColor=#dddddd;align=left;verticalAlign=top;spacing=10;shadow=1;whiteSpace=wrap;rounded=0;" vertex="1" parent="O4ANDgfvFVBwBjS4QOHz-1">
          <mxGeometry x="602" y="1445" width="240" height="140" as="geometry" />
        </mxCell>
        <mxCell id="DmRDNTAlGFzrFGz1MmQI-27" value="Message Type" style="html=1;shadow=0;dashed=0;shape=mxgraph.bootstrap.rect;strokeColor=none;fillColor=none;fontColor=#999999;align=left;spacingLeft=5;whiteSpace=wrap;rounded=0;" vertex="1" parent="O4ANDgfvFVBwBjS4QOHz-1">
          <mxGeometry x="52" y="1690" width="200" height="20" as="geometry" />
        </mxCell>
        <mxCell id="DmRDNTAlGFzrFGz1MmQI-28" value="Email + Push" style="html=1;shadow=0;dashed=0;shape=mxgraph.bootstrap.rrect;rSize=5;strokeColor=#dddddd;align=left;spacingLeft=10;fontSize=16;whiteSpace=wrap;rounded=0;" vertex="1" parent="O4ANDgfvFVBwBjS4QOHz-1">
          <mxGeometry x="52" y="1710" width="390" height="40" as="geometry" />
        </mxCell>
        <mxCell id="DmRDNTAlGFzrFGz1MmQI-29" value="" style="shape=triangle;strokeColor=none;fillColor=#000000;direction=south;rounded=0;shadow=1;fontSize=12;fontColor=#000000;align=center;html=1;" vertex="1" parent="O4ANDgfvFVBwBjS4QOHz-1">
          <mxGeometry x="422" y="1727" width="10" height="5" as="geometry" />
        </mxCell>
        <mxCell id="DmRDNTAlGFzrFGz1MmQI-30" value="Tap target" style="html=1;shadow=0;dashed=0;shape=mxgraph.bootstrap.rect;strokeColor=none;fillColor=none;fontColor=#999999;align=left;spacingLeft=5;whiteSpace=wrap;rounded=0;" vertex="1" parent="O4ANDgfvFVBwBjS4QOHz-1">
          <mxGeometry x="462" y="1690" width="200" height="20" as="geometry" />
        </mxCell>
        <mxCell id="DmRDNTAlGFzrFGz1MmQI-31" value="Profile Screen" style="html=1;shadow=0;dashed=0;shape=mxgraph.bootstrap.rrect;rSize=5;strokeColor=#dddddd;align=left;spacingLeft=10;fontSize=16;whiteSpace=wrap;rounded=0;" vertex="1" parent="O4ANDgfvFVBwBjS4QOHz-1">
          <mxGeometry x="462" y="1710" width="390" height="40" as="geometry" />
        </mxCell>
        <mxCell id="DmRDNTAlGFzrFGz1MmQI-32" value="" style="shape=triangle;strokeColor=none;fillColor=#000000;direction=south;rounded=0;shadow=1;fontSize=12;fontColor=#000000;align=center;html=1;" vertex="1" parent="O4ANDgfvFVBwBjS4QOHz-1">
          <mxGeometry x="832" y="1727" width="10" height="5" as="geometry" />
        </mxCell>
        <mxCell id="DmRDNTAlGFzrFGz1MmQI-33" value="Send to Group" style="html=1;shadow=0;dashed=0;shape=mxgraph.bootstrap.rect;strokeColor=none;fillColor=none;fontColor=#999999;align=left;spacingLeft=5;whiteSpace=wrap;rounded=0;" vertex="1" parent="O4ANDgfvFVBwBjS4QOHz-1">
          <mxGeometry x="52" y="1770" width="200" height="20" as="geometry" />
        </mxCell>
        <mxCell id="DmRDNTAlGFzrFGz1MmQI-34" value="Top Management" style="html=1;shadow=0;dashed=0;shape=mxgraph.bootstrap.checkbox;fontSize=12;strokeColor=#999999;align=left;labelPosition=right;spacingLeft=5;rounded=0;" vertex="1" parent="O4ANDgfvFVBwBjS4QOHz-1">
          <mxGeometry x="62" y="1793" width="14" height="14" as="geometry" />
        </mxCell>
        <mxCell id="DmRDNTAlGFzrFGz1MmQI-35" value="Marketing Department" style="html=1;shadow=0;dashed=0;shape=mxgraph.bootstrap.rrect;fontSize=12;rSize=3;strokeColor=#999999;align=left;labelPosition=right;spacingLeft=5;rounded=0;" vertex="1" parent="O4ANDgfvFVBwBjS4QOHz-1">
          <mxGeometry x="62" y="1813" width="14" height="14" as="geometry" />
        </mxCell>
        <mxCell id="DmRDNTAlGFzrFGz1MmQI-36" value="Design Department" style="html=1;shadow=0;dashed=0;shape=mxgraph.bootstrap.checkbox;fontSize=12;strokeColor=#999999;align=left;labelPosition=right;spacingLeft=5;rounded=0;" vertex="1" parent="O4ANDgfvFVBwBjS4QOHz-1">
          <mxGeometry x="62" y="1833" width="14" height="14" as="geometry" />
        </mxCell>
        <mxCell id="DmRDNTAlGFzrFGz1MmQI-37" value="Financial Department" style="html=1;shadow=0;dashed=0;shape=mxgraph.bootstrap.rrect;fontSize=12;rSize=3;strokeColor=#999999;align=left;labelPosition=right;spacingLeft=5;rounded=0;" vertex="1" parent="O4ANDgfvFVBwBjS4QOHz-1">
          <mxGeometry x="62" y="1853" width="14" height="14" as="geometry" />
        </mxCell>
        <mxCell id="DmRDNTAlGFzrFGz1MmQI-38" value="Supply Department" style="html=1;shadow=0;dashed=0;shape=mxgraph.bootstrap.rrect;fontSize=12;rSize=3;strokeColor=#999999;align=left;labelPosition=right;spacingLeft=5;rounded=0;" vertex="1" parent="O4ANDgfvFVBwBjS4QOHz-1">
          <mxGeometry x="62" y="1873" width="14" height="14" as="geometry" />
        </mxCell>
        <mxCell id="DmRDNTAlGFzrFGz1MmQI-39" value="Set Type" style="html=1;shadow=0;dashed=0;shape=mxgraph.bootstrap.rect;strokeColor=none;fillColor=none;fontColor=#999999;align=left;spacingLeft=5;whiteSpace=wrap;rounded=0;" vertex="1" parent="O4ANDgfvFVBwBjS4QOHz-1">
          <mxGeometry x="462" y="1770" width="200" height="20" as="geometry" />
        </mxCell>
        <mxCell id="DmRDNTAlGFzrFGz1MmQI-40" value="" style="shape=ellipse;dashed=0;strokeColor=#999999;fillColor=#ffffff;html=1;rounded=0;shadow=1;fontSize=12;fontColor=#000000;align=center;" vertex="1" parent="O4ANDgfvFVBwBjS4QOHz-1">
          <mxGeometry x="472" y="1793" width="14" height="14" as="geometry" />
        </mxCell>
        <mxCell id="DmRDNTAlGFzrFGz1MmQI-41" value="News" style="html=1;shadow=0;dashed=0;shape=mxgraph.bootstrap.rrect;align=center;rSize=3;strokeColor=none;fillColor=#58B957;fontColor=#ffffff;fontStyle=1;fontSize=10;whiteSpace=wrap;rounded=0;" vertex="1" parent="O4ANDgfvFVBwBjS4QOHz-1">
          <mxGeometry x="492" y="1793" width="40" height="14" as="geometry" />
        </mxCell>
        <mxCell id="DmRDNTAlGFzrFGz1MmQI-42" value="" style="html=1;shadow=0;dashed=0;shape=mxgraph.bootstrap.radioButton;strokeColor=#999999;fillColor=#ffffff;rounded=0;fontSize=12;fontColor=#000000;align=center;" vertex="1" parent="O4ANDgfvFVBwBjS4QOHz-1">
          <mxGeometry x="472" y="1813" width="14" height="14" as="geometry" />
        </mxCell>
        <mxCell id="DmRDNTAlGFzrFGz1MmQI-43" value="Reports" style="html=1;shadow=0;dashed=0;shape=mxgraph.bootstrap.rrect;align=center;rSize=3;strokeColor=none;fillColor=#55BFE0;fontColor=#ffffff;fontStyle=1;fontSize=10;whiteSpace=wrap;rounded=0;" vertex="1" parent="O4ANDgfvFVBwBjS4QOHz-1">
          <mxGeometry x="492" y="1813" width="50" height="14" as="geometry" />
        </mxCell>
        <mxCell id="DmRDNTAlGFzrFGz1MmQI-44" value="" style="shape=ellipse;dashed=0;strokeColor=#999999;fillColor=#ffffff;html=1;rounded=0;shadow=1;fontSize=12;fontColor=#000000;align=center;" vertex="1" parent="O4ANDgfvFVBwBjS4QOHz-1">
          <mxGeometry x="472" y="1833" width="14" height="14" as="geometry" />
        </mxCell>
        <mxCell id="DmRDNTAlGFzrFGz1MmQI-45" value="Documents" style="html=1;shadow=0;dashed=0;shape=mxgraph.bootstrap.rrect;align=center;rSize=3;strokeColor=none;fillColor=#EFAC43;fontColor=#ffffff;fontStyle=1;fontSize=10;whiteSpace=wrap;rounded=0;" vertex="1" parent="O4ANDgfvFVBwBjS4QOHz-1">
          <mxGeometry x="492" y="1833" width="70" height="14" as="geometry" />
        </mxCell>
        <mxCell id="DmRDNTAlGFzrFGz1MmQI-46" value="" style="shape=ellipse;dashed=0;strokeColor=#999999;fillColor=#ffffff;html=1;rounded=0;shadow=1;fontSize=12;fontColor=#000000;align=center;" vertex="1" parent="O4ANDgfvFVBwBjS4QOHz-1">
          <mxGeometry x="472" y="1853" width="14" height="14" as="geometry" />
        </mxCell>
        <mxCell id="DmRDNTAlGFzrFGz1MmQI-47" value="Media" style="html=1;shadow=0;dashed=0;shape=mxgraph.bootstrap.rrect;align=center;rSize=3;strokeColor=none;fillColor=#3D8BCD;fontColor=#ffffff;fontStyle=1;fontSize=10;whiteSpace=wrap;rounded=0;" vertex="1" parent="O4ANDgfvFVBwBjS4QOHz-1">
          <mxGeometry x="492" y="1853" width="40" height="14" as="geometry" />
        </mxCell>
        <mxCell id="DmRDNTAlGFzrFGz1MmQI-48" value="" style="shape=ellipse;dashed=0;strokeColor=#999999;fillColor=#ffffff;html=1;rounded=0;shadow=1;fontSize=12;fontColor=#000000;align=center;" vertex="1" parent="O4ANDgfvFVBwBjS4QOHz-1">
          <mxGeometry x="472" y="1873" width="14" height="14" as="geometry" />
        </mxCell>
        <mxCell id="DmRDNTAlGFzrFGz1MmQI-49" value="Text" style="html=1;shadow=0;dashed=0;shape=mxgraph.bootstrap.rrect;align=center;rSize=3;strokeColor=none;fillColor=#999999;fontColor=#ffffff;fontStyle=1;fontSize=10;whiteSpace=wrap;rounded=0;" vertex="1" parent="O4ANDgfvFVBwBjS4QOHz-1">
          <mxGeometry x="492" y="1873" width="30" height="14" as="geometry" />
        </mxCell>
        <mxCell id="DmRDNTAlGFzrFGz1MmQI-50" value="Save Template" style="html=1;shadow=0;dashed=0;shape=mxgraph.bootstrap.rrect;align=center;rSize=5;strokeColor=none;fillColor=#3D8BCD;fontColor=#ffffff;fontSize=16;whiteSpace=wrap;rounded=0;" vertex="1" parent="O4ANDgfvFVBwBjS4QOHz-1">
          <mxGeometry x="52" y="1930" width="150" height="40" as="geometry" />
        </mxCell>
        <mxCell id="DmRDNTAlGFzrFGz1MmQI-51" value="Cancel" style="html=1;shadow=0;dashed=0;shape=mxgraph.bootstrap.rrect;align=center;rSize=5;strokeColor=#dddddd;fontSize=16;whiteSpace=wrap;rounded=0;" vertex="1" parent="O4ANDgfvFVBwBjS4QOHz-1">
          <mxGeometry x="222" y="1930" width="100" height="40" as="geometry" />
        </mxCell>
        <mxCell id="DmRDNTAlGFzrFGz1MmQI-52" value="Delete Template" style="html=1;shadow=0;dashed=0;shape=mxgraph.bootstrap.rrect;align=center;rSize=5;strokeColor=none;fillColor=#DB524C;fontColor=#ffffff;fontSize=16;whiteSpace=wrap;rounded=0;" vertex="1" parent="O4ANDgfvFVBwBjS4QOHz-1">
          <mxGeometry x="682" y="1930" width="170" height="40" as="geometry" />
        </mxCell>
        <mxCell id="DmRDNTAlGFzrFGz1MmQI-59" value="First Name" style="html=1;shadow=0;dashed=0;shape=mxgraph.bootstrap.rect;strokeColor=none;fillColor=none;align=left;spacingLeft=5;whiteSpace=wrap;rounded=0;strokeWidth=10;fontStyle=1;fontSize=14;fontColor=#1A1A1A;" vertex="1" parent="O4ANDgfvFVBwBjS4QOHz-1">
          <mxGeometry x="40" y="170" width="200" height="20" as="geometry" />
        </mxCell>
        <mxCell id="DmRDNTAlGFzrFGz1MmQI-60" value="&lt;span style=&quot;color: rgb(153 , 153 , 153) ; font-size: 12px&quot;&gt;Middle Name (optional)&lt;/span&gt;" style="html=1;shadow=0;dashed=0;shape=mxgraph.bootstrap.rrect;rSize=5;strokeColor=#dddddd;;align=left;spacingLeft=10;fontSize=16;whiteSpace=wrap;rounded=0;" vertex="1" parent="O4ANDgfvFVBwBjS4QOHz-1">
          <mxGeometry x="420" y="200" width="320" height="40" as="geometry" />
        </mxCell>
        <mxCell id="DmRDNTAlGFzrFGz1MmQI-61" value="Middle Name (optional)" style="html=1;shadow=0;dashed=0;shape=mxgraph.bootstrap.rect;strokeColor=none;fillColor=none;align=left;spacingLeft=5;whiteSpace=wrap;rounded=0;fontSize=14;fontStyle=1;fontColor=#1A1A1A;" vertex="1" parent="O4ANDgfvFVBwBjS4QOHz-1">
          <mxGeometry x="420" y="170" width="200" height="20" as="geometry" />
        </mxCell>
        <mxCell id="DmRDNTAlGFzrFGz1MmQI-62" value="&lt;span style=&quot;color: rgb(153 , 153 , 153) ; font-size: 12px&quot;&gt;Last Name&amp;nbsp;&lt;/span&gt;" style="html=1;shadow=0;dashed=0;shape=mxgraph.bootstrap.rrect;rSize=5;strokeColor=#dddddd;;align=left;spacingLeft=10;fontSize=16;whiteSpace=wrap;rounded=0;" vertex="1" parent="O4ANDgfvFVBwBjS4QOHz-1">
          <mxGeometry x="810" y="200" width="320" height="40" as="geometry" />
        </mxCell>
        <mxCell id="DmRDNTAlGFzrFGz1MmQI-63" value="Last Name" style="html=1;shadow=0;dashed=0;shape=mxgraph.bootstrap.rect;strokeColor=none;fillColor=none;align=left;spacingLeft=5;whiteSpace=wrap;rounded=0;fontStyle=1;fontSize=14;fontColor=#1A1A1A;" vertex="1" parent="O4ANDgfvFVBwBjS4QOHz-1">
          <mxGeometry x="810" y="170" width="200" height="20" as="geometry" />
        </mxCell>
        <mxCell id="DmRDNTAlGFzrFGz1MmQI-65" value="" style="html=1;shadow=0;dashed=0;shape=mxgraph.bootstrap.rrect;rSize=5;strokeColor=#dddddd;;align=left;spacingLeft=10;fontSize=16;whiteSpace=wrap;rounded=0;" vertex="1" parent="O4ANDgfvFVBwBjS4QOHz-1">
          <mxGeometry x="40" y="300" width="320" height="40" as="geometry" />
        </mxCell>
        <mxCell id="DmRDNTAlGFzrFGz1MmQI-68" value="" style="shape=image;html=1;verticalAlign=top;verticalLabelPosition=bottom;labelBackgroundColor=#ffffff;imageAspect=0;aspect=fixed;image=https://cdn1.iconfinder.com/data/icons/feather-2/24/calendar-128.png" vertex="1" parent="O4ANDgfvFVBwBjS4QOHz-1">
          <mxGeometry x="320" y="305" width="30" height="30" as="geometry" />
        </mxCell>
        <mxCell id="DmRDNTAlGFzrFGz1MmQI-69" value="Date of Birth:" style="html=1;shadow=0;dashed=0;shape=mxgraph.bootstrap.rect;strokeColor=none;fillColor=none;align=left;spacingLeft=5;whiteSpace=wrap;rounded=0;strokeWidth=10;fontStyle=1;fontSize=14;fontColor=#1A1A1A;" vertex="1" parent="O4ANDgfvFVBwBjS4QOHz-1">
          <mxGeometry x="40" y="260" width="200" height="20" as="geometry" />
        </mxCell>
        <mxCell id="DmRDNTAlGFzrFGz1MmQI-70" value="Gender:" style="html=1;shadow=0;dashed=0;shape=mxgraph.bootstrap.rect;strokeColor=none;fillColor=none;align=left;spacingLeft=5;whiteSpace=wrap;rounded=0;strokeWidth=10;fontStyle=1;fontSize=14;fontColor=#1A1A1A;" vertex="1" parent="O4ANDgfvFVBwBjS4QOHz-1">
          <mxGeometry x="420" y="260" width="200" height="20" as="geometry" />
        </mxCell>
        <mxCell id="DmRDNTAlGFzrFGz1MmQI-71" value="" style="shape=ellipse;dashed=0;strokeColor=#999999;fillColor=#ffffff;html=1;rounded=0;shadow=1;fontSize=12;fontColor=#000000;align=center;" vertex="1" parent="O4ANDgfvFVBwBjS4QOHz-1">
          <mxGeometry x="433" y="335" width="14" height="14" as="geometry" />
        </mxCell>
        <mxCell id="DmRDNTAlGFzrFGz1MmQI-72" value="Male" style="html=1;shadow=0;dashed=0;shape=mxgraph.bootstrap.rrect;align=center;rSize=3;strokeColor=none;fillColor=#58B957;fontStyle=1;fontSize=12;whiteSpace=wrap;rounded=0;" vertex="1" parent="O4ANDgfvFVBwBjS4QOHz-1">
          <mxGeometry x="460" y="290" width="100" height="30" as="geometry" />
        </mxCell>
        <mxCell id="DmRDNTAlGFzrFGz1MmQI-73" value="" style="html=1;shadow=0;dashed=0;shape=mxgraph.bootstrap.radioButton;strokeColor=#999999;fillColor=#ffffff;rounded=0;fontSize=12;fontColor=#000000;align=center;" vertex="1" parent="O4ANDgfvFVBwBjS4QOHz-1">
          <mxGeometry x="433" y="300" width="14" height="14" as="geometry" />
        </mxCell>
        <mxCell id="DmRDNTAlGFzrFGz1MmQI-74" value="Female" style="html=1;shadow=0;dashed=0;shape=mxgraph.bootstrap.rrect;align=center;rSize=3;strokeColor=none;fillColor=#55BFE0;fontStyle=1;fontSize=12;whiteSpace=wrap;rounded=0;" vertex="1" parent="O4ANDgfvFVBwBjS4QOHz-1">
          <mxGeometry x="460" y="328.5" width="100" height="29" as="geometry" />
        </mxCell>
        <mxCell id="DmRDNTAlGFzrFGz1MmQI-78" value="" style="shape=ellipse;dashed=0;strokeColor=#999999;fillColor=#ffffff;html=1;rounded=0;shadow=1;fontSize=12;fontColor=#000000;align=center;" vertex="1" parent="O4ANDgfvFVBwBjS4QOHz-1">
          <mxGeometry x="433" y="378" width="14" height="14" as="geometry" />
        </mxCell>
        <mxCell id="DmRDNTAlGFzrFGz1MmQI-79" value="Others (specify)" style="html=1;shadow=0;dashed=0;shape=mxgraph.bootstrap.rrect;align=center;rSize=3;fontStyle=1;fontSize=10;whiteSpace=wrap;rounded=0;fillColor=#FFFFFF;strokeWidth=1;" vertex="1" parent="O4ANDgfvFVBwBjS4QOHz-1">
          <mxGeometry x="460" y="370" width="100" height="30" as="geometry" />
        </mxCell>
        <mxCell id="DmRDNTAlGFzrFGz1MmQI-88" value="Category:" style="html=1;shadow=0;dashed=0;shape=mxgraph.bootstrap.rect;strokeColor=none;fillColor=none;align=left;spacingLeft=5;whiteSpace=wrap;rounded=0;strokeWidth=10;fontStyle=1;fontSize=14;fontColor=#1A1A1A;" vertex="1" parent="O4ANDgfvFVBwBjS4QOHz-1">
          <mxGeometry x="812" y="260" width="200" height="20" as="geometry" />
        </mxCell>
        <mxCell id="DmRDNTAlGFzrFGz1MmQI-89" value="" style="shape=ellipse;dashed=0;strokeColor=#999999;fillColor=#ffffff;html=1;rounded=0;shadow=1;fontSize=12;fontColor=#000000;align=center;" vertex="1" parent="O4ANDgfvFVBwBjS4QOHz-1">
          <mxGeometry x="820" y="296" width="14" height="14" as="geometry" />
        </mxCell>
        <mxCell id="DmRDNTAlGFzrFGz1MmQI-90" value="SC / ST" style="html=1;shadow=0;dashed=0;shape=mxgraph.bootstrap.rrect;align=center;rSize=3;strokeColor=none;fillColor=#58B957;fontStyle=1;fontSize=12;whiteSpace=wrap;rounded=0;" vertex="1" parent="O4ANDgfvFVBwBjS4QOHz-1">
          <mxGeometry x="852" y="290" width="100" height="30" as="geometry" />
        </mxCell>
        <mxCell id="DmRDNTAlGFzrFGz1MmQI-91" value="" style="html=1;shadow=0;dashed=0;shape=mxgraph.bootstrap.radioButton;strokeColor=#999999;fillColor=#ffffff;rounded=0;fontSize=12;fontColor=#000000;align=center;" vertex="1" parent="O4ANDgfvFVBwBjS4QOHz-1">
          <mxGeometry x="820" y="336" width="14" height="14" as="geometry" />
        </mxCell>
        <mxCell id="DmRDNTAlGFzrFGz1MmQI-92" value="OBC" style="html=1;shadow=0;dashed=0;shape=mxgraph.bootstrap.rrect;align=center;rSize=3;strokeColor=none;fillColor=#55BFE0;fontStyle=1;fontSize=12;whiteSpace=wrap;rounded=0;" vertex="1" parent="O4ANDgfvFVBwBjS4QOHz-1">
          <mxGeometry x="852" y="328.5" width="100" height="29" as="geometry" />
        </mxCell>
        <mxCell id="DmRDNTAlGFzrFGz1MmQI-95" value="" style="shape=ellipse;dashed=0;strokeColor=#999999;fillColor=#ffffff;html=1;rounded=0;shadow=1;fontSize=12;fontColor=#000000;align=center;" vertex="1" parent="O4ANDgfvFVBwBjS4QOHz-1">
          <mxGeometry x="1012" y="334" width="14" height="14" as="geometry" />
        </mxCell>
        <mxCell id="DmRDNTAlGFzrFGz1MmQI-96" value="BCM" style="html=1;shadow=0;dashed=0;shape=mxgraph.bootstrap.rrect;align=center;rSize=3;strokeColor=none;fontStyle=1;fontSize=12;whiteSpace=wrap;rounded=0;fillColor=#FFD966;" vertex="1" parent="O4ANDgfvFVBwBjS4QOHz-1">
          <mxGeometry x="1037" y="288" width="100" height="30" as="geometry" />
        </mxCell>
        <mxCell id="DmRDNTAlGFzrFGz1MmQI-98" value="MBC" style="html=1;shadow=0;dashed=0;shape=mxgraph.bootstrap.rrect;align=center;rSize=3;strokeColor=none;fontStyle=1;fontSize=12;whiteSpace=wrap;rounded=0;fillColor=#F19C99;fontColor=#222222;" vertex="1" parent="O4ANDgfvFVBwBjS4QOHz-1">
          <mxGeometry x="1037" y="326.5" width="100" height="29" as="geometry" />
        </mxCell>
        <mxCell id="DmRDNTAlGFzrFGz1MmQI-101" value="" style="shape=ellipse;dashed=0;strokeColor=#999999;fillColor=#ffffff;html=1;rounded=0;shadow=1;fontSize=12;fontColor=#000000;align=center;" vertex="1" parent="O4ANDgfvFVBwBjS4QOHz-1">
          <mxGeometry x="1012" y="296" width="14" height="14" as="geometry" />
        </mxCell>
        <mxCell id="DmRDNTAlGFzrFGz1MmQI-102" value="&lt;font color=&quot;#999999&quot; style=&quot;font-size: 14px;&quot;&gt;&lt;span style=&quot;font-size: 14px;&quot;&gt;Address line 1&lt;/span&gt;&lt;/font&gt;" style="html=1;shadow=0;dashed=0;shape=mxgraph.bootstrap.rrect;rSize=5;strokeColor=#dddddd;;align=left;spacingLeft=10;fontSize=14;whiteSpace=wrap;rounded=0;" vertex="1" parent="O4ANDgfvFVBwBjS4QOHz-1">
          <mxGeometry x="40" y="460" width="320" height="40" as="geometry" />
        </mxCell>
        <mxCell id="DmRDNTAlGFzrFGz1MmQI-103" value="Permanent address:" style="html=1;shadow=0;dashed=0;shape=mxgraph.bootstrap.rect;strokeColor=none;fillColor=none;align=left;spacingLeft=5;whiteSpace=wrap;rounded=0;strokeWidth=10;fontStyle=1;fontSize=14;fontColor=#1A1A1A;" vertex="1" parent="O4ANDgfvFVBwBjS4QOHz-1">
          <mxGeometry x="40" y="420" width="200" height="20" as="geometry" />
        </mxCell>
        <mxCell id="DmRDNTAlGFzrFGz1MmQI-104" value="&lt;font color=&quot;#999999&quot;&gt;Address line 2&lt;/font&gt;" style="html=1;shadow=0;dashed=0;shape=mxgraph.bootstrap.rrect;rSize=5;strokeColor=#dddddd;;align=left;spacingLeft=10;fontSize=14;whiteSpace=wrap;rounded=0;" vertex="1" parent="O4ANDgfvFVBwBjS4QOHz-1">
          <mxGeometry x="41" y="520" width="320" height="40" as="geometry" />
        </mxCell>
        <mxCell id="DmRDNTAlGFzrFGz1MmQI-105" value="&lt;font color=&quot;#999999&quot;&gt;Address line 3&lt;/font&gt;" style="html=1;shadow=0;dashed=0;shape=mxgraph.bootstrap.rrect;rSize=5;strokeColor=#dddddd;;align=left;spacingLeft=10;fontSize=14;whiteSpace=wrap;rounded=0;" vertex="1" parent="O4ANDgfvFVBwBjS4QOHz-1">
          <mxGeometry x="40" y="580" width="320" height="40" as="geometry" />
        </mxCell>
        <mxCell id="DmRDNTAlGFzrFGz1MmQI-106" value="&lt;font color=&quot;#999999&quot; style=&quot;font-size: 14px;&quot;&gt;&lt;span style=&quot;font-size: 14px;&quot;&gt;Address line 1&lt;/span&gt;&lt;/font&gt;" style="html=1;shadow=0;dashed=0;shape=mxgraph.bootstrap.rrect;rSize=5;strokeColor=#dddddd;;align=left;spacingLeft=10;fontSize=14;whiteSpace=wrap;rounded=0;" vertex="1" parent="O4ANDgfvFVBwBjS4QOHz-1">
          <mxGeometry x="433" y="460" width="320" height="40" as="geometry" />
        </mxCell>
        <mxCell id="DmRDNTAlGFzrFGz1MmQI-107" value="Current address:" style="html=1;shadow=0;dashed=0;shape=mxgraph.bootstrap.rect;strokeColor=none;fillColor=none;align=left;spacingLeft=5;whiteSpace=wrap;rounded=0;strokeWidth=10;fontStyle=1;fontSize=14;fontColor=#1A1A1A;" vertex="1" parent="O4ANDgfvFVBwBjS4QOHz-1">
          <mxGeometry x="433" y="420" width="200" height="20" as="geometry" />
        </mxCell>
        <mxCell id="DmRDNTAlGFzrFGz1MmQI-108" value="&lt;font color=&quot;#999999&quot;&gt;Address line 2&lt;/font&gt;" style="html=1;shadow=0;dashed=0;shape=mxgraph.bootstrap.rrect;rSize=5;strokeColor=#dddddd;;align=left;spacingLeft=10;fontSize=14;whiteSpace=wrap;rounded=0;" vertex="1" parent="O4ANDgfvFVBwBjS4QOHz-1">
          <mxGeometry x="434" y="520" width="320" height="40" as="geometry" />
        </mxCell>
        <mxCell id="DmRDNTAlGFzrFGz1MmQI-109" value="&lt;font color=&quot;#999999&quot;&gt;Address line 3&lt;/font&gt;" style="html=1;shadow=0;dashed=0;shape=mxgraph.bootstrap.rrect;rSize=5;strokeColor=#dddddd;;align=left;spacingLeft=10;fontSize=14;whiteSpace=wrap;rounded=0;" vertex="1" parent="O4ANDgfvFVBwBjS4QOHz-1">
          <mxGeometry x="433" y="580" width="320" height="40" as="geometry" />
        </mxCell>
        <mxCell id="DmRDNTAlGFzrFGz1MmQI-110" value="" style="html=1;shadow=0;dashed=0;shape=mxgraph.bootstrap.radioButton;strokeColor=#999999;fillColor=#ffffff;rounded=0;fontSize=12;fontColor=#000000;align=center;" vertex="1" parent="O4ANDgfvFVBwBjS4QOHz-1">
          <mxGeometry x="44" y="640" width="14" height="14" as="geometry" />
        </mxCell>
        <mxCell id="DmRDNTAlGFzrFGz1MmQI-111" value="Current address is the same as Permanent address" style="html=1;shadow=0;dashed=0;shape=mxgraph.bootstrap.rect;strokeColor=none;fillColor=none;align=left;spacingLeft=5;whiteSpace=wrap;rounded=0;strokeWidth=10;fontStyle=1;fontSize=14;fontColor=#1A1A1A;" vertex="1" parent="O4ANDgfvFVBwBjS4QOHz-1">
          <mxGeometry x="70" y="637" width="360" height="20" as="geometry" />
        </mxCell>
        <mxCell id="DmRDNTAlGFzrFGz1MmQI-114" value="&lt;b style=&quot;font-size: 24px&quot;&gt;&lt;font style=&quot;font-size: 24px&quot;&gt;Academic Details&lt;/font&gt;&lt;/b&gt;" style="html=1;shadow=0;dashed=0;shape=mxgraph.bootstrap.rect;strokeColor=none;fillColor=none;fontColor=#999999;align=left;spacingLeft=5;whiteSpace=wrap;rounded=0;fontSize=24;" vertex="1" parent="O4ANDgfvFVBwBjS4QOHz-1">
          <mxGeometry x="40" y="690" width="220" height="20" as="geometry" />
        </mxCell>
        <mxCell id="DmRDNTAlGFzrFGz1MmQI-115" value="College Name" style="html=1;shadow=0;dashed=0;shape=mxgraph.bootstrap.rect;strokeColor=none;fillColor=none;align=left;spacingLeft=5;whiteSpace=wrap;rounded=0;strokeWidth=10;fontStyle=1;fontSize=14;fontColor=#1A1A1A;" vertex="1" parent="O4ANDgfvFVBwBjS4QOHz-1">
          <mxGeometry x="40" y="720" width="200" height="20" as="geometry" />
        </mxCell>
        <mxCell id="DmRDNTAlGFzrFGz1MmQI-116" value="&lt;font color=&quot;#999999&quot;&gt;College Name&lt;/font&gt;" style="html=1;shadow=0;dashed=0;shape=mxgraph.bootstrap.rrect;rSize=5;strokeColor=#dddddd;;align=left;spacingLeft=10;fontSize=14;whiteSpace=wrap;rounded=0;" vertex="1" parent="O4ANDgfvFVBwBjS4QOHz-1">
          <mxGeometry x="44" y="750" width="320" height="40" as="geometry" />
        </mxCell>
        <mxCell id="DmRDNTAlGFzrFGz1MmQI-117" value="" style="shape=image;html=1;verticalAlign=top;verticalLabelPosition=bottom;labelBackgroundColor=#ffffff;imageAspect=0;aspect=fixed;image=https://cdn3.iconfinder.com/data/icons/google-material-design-icons/48/ic_arrow_drop_down_48px-128.png;shadow=0;strokeColor=#222222;strokeWidth=1;fillColor=#FFFFFF;fontSize=24;fontColor=#1A1A1A;" vertex="1" parent="O4ANDgfvFVBwBjS4QOHz-1">
          <mxGeometry x="332" y="756" width="28" height="28" as="geometry" />
        </mxCell>
        <mxCell id="DmRDNTAlGFzrFGz1MmQI-118" value="Department:" style="html=1;shadow=0;dashed=0;shape=mxgraph.bootstrap.rect;strokeColor=none;fillColor=none;align=left;spacingLeft=5;whiteSpace=wrap;rounded=0;strokeWidth=10;fontStyle=1;fontSize=14;fontColor=#1A1A1A;" vertex="1" parent="O4ANDgfvFVBwBjS4QOHz-1">
          <mxGeometry x="50" y="820" width="200" height="20" as="geometry" />
        </mxCell>
        <mxCell id="DmRDNTAlGFzrFGz1MmQI-119" value="&lt;font color=&quot;#999999&quot;&gt;Department&lt;/font&gt;" style="html=1;shadow=0;dashed=0;shape=mxgraph.bootstrap.rrect;rSize=5;strokeColor=#dddddd;;align=left;spacingLeft=10;fontSize=14;whiteSpace=wrap;rounded=0;" vertex="1" parent="O4ANDgfvFVBwBjS4QOHz-1">
          <mxGeometry x="50" y="850" width="320" height="40" as="geometry" />
        </mxCell>
        <mxCell id="DmRDNTAlGFzrFGz1MmQI-120" value="" style="shape=image;html=1;verticalAlign=top;verticalLabelPosition=bottom;labelBackgroundColor=#ffffff;imageAspect=0;aspect=fixed;image=https://cdn3.iconfinder.com/data/icons/google-material-design-icons/48/ic_arrow_drop_down_48px-128.png;shadow=0;strokeColor=#222222;strokeWidth=1;fillColor=#FFFFFF;fontSize=24;fontColor=#1A1A1A;" vertex="1" parent="O4ANDgfvFVBwBjS4QOHz-1">
          <mxGeometry x="332" y="850" width="28" height="28" as="geometry" />
        </mxCell>
        <mxCell id="DmRDNTAlGFzrFGz1MmQI-121" value="Year of Study:" style="html=1;shadow=0;dashed=0;shape=mxgraph.bootstrap.rect;strokeColor=none;fillColor=none;align=left;spacingLeft=5;whiteSpace=wrap;rounded=0;strokeWidth=10;fontStyle=1;fontSize=14;fontColor=#1A1A1A;" vertex="1" parent="O4ANDgfvFVBwBjS4QOHz-1">
          <mxGeometry x="890" y="720" width="200" height="20" as="geometry" />
        </mxCell>
        <mxCell id="DmRDNTAlGFzrFGz1MmQI-122" value="&lt;font color=&quot;#999999&quot;&gt;Year of Study&lt;/font&gt;" style="html=1;shadow=0;dashed=0;shape=mxgraph.bootstrap.rrect;rSize=5;strokeColor=#dddddd;;align=left;spacingLeft=10;fontSize=14;whiteSpace=wrap;rounded=0;" vertex="1" parent="O4ANDgfvFVBwBjS4QOHz-1">
          <mxGeometry x="880" y="760" width="320" height="40" as="geometry" />
        </mxCell>
        <mxCell id="DmRDNTAlGFzrFGz1MmQI-123" value="" style="shape=image;html=1;verticalAlign=top;verticalLabelPosition=bottom;labelBackgroundColor=#ffffff;imageAspect=0;aspect=fixed;image=https://cdn3.iconfinder.com/data/icons/google-material-design-icons/48/ic_arrow_drop_down_48px-128.png;shadow=0;strokeColor=#222222;strokeWidth=1;fillColor=#FFFFFF;fontSize=24;fontColor=#1A1A1A;" vertex="1" parent="O4ANDgfvFVBwBjS4QOHz-1">
          <mxGeometry x="1168" y="766" width="28" height="28" as="geometry" />
        </mxCell>
        <mxCell id="DmRDNTAlGFzrFGz1MmQI-127" value="Course of Study:" style="html=1;shadow=0;dashed=0;shape=mxgraph.bootstrap.rect;strokeColor=none;fillColor=none;align=left;spacingLeft=5;whiteSpace=wrap;rounded=0;strokeWidth=10;fontStyle=1;fontSize=14;fontColor=#1A1A1A;" vertex="1" parent="O4ANDgfvFVBwBjS4QOHz-1">
          <mxGeometry x="447" y="720" width="200" height="20" as="geometry" />
        </mxCell>
        <mxCell id="DmRDNTAlGFzrFGz1MmQI-128" value="&lt;font color=&quot;#999999&quot;&gt;Department&lt;/font&gt;" style="html=1;shadow=0;dashed=0;shape=mxgraph.bootstrap.rrect;rSize=5;strokeColor=#dddddd;;align=left;spacingLeft=10;fontSize=14;whiteSpace=wrap;rounded=0;" vertex="1" parent="O4ANDgfvFVBwBjS4QOHz-1">
          <mxGeometry x="447" y="750" width="320" height="40" as="geometry" />
        </mxCell>
        <mxCell id="DmRDNTAlGFzrFGz1MmQI-129" value="" style="shape=image;html=1;verticalAlign=top;verticalLabelPosition=bottom;labelBackgroundColor=#ffffff;imageAspect=0;aspect=fixed;image=https://cdn3.iconfinder.com/data/icons/google-material-design-icons/48/ic_arrow_drop_down_48px-128.png;shadow=0;strokeColor=#222222;strokeWidth=1;fillColor=#FFFFFF;fontSize=24;fontColor=#1A1A1A;" vertex="1" parent="O4ANDgfvFVBwBjS4QOHz-1">
          <mxGeometry x="735" y="756" width="28" height="28" as="geometry" />
        </mxCell>
        <mxCell id="DmRDNTAlGFzrFGz1MmQI-130" value="CGPA:&amp;nbsp;" style="html=1;shadow=0;dashed=0;shape=mxgraph.bootstrap.rect;strokeColor=none;fillColor=none;align=left;spacingLeft=5;whiteSpace=wrap;rounded=0;strokeWidth=10;fontStyle=1;fontSize=14;fontColor=#1A1A1A;" vertex="1" parent="O4ANDgfvFVBwBjS4QOHz-1">
          <mxGeometry x="447" y="820" width="200" height="20" as="geometry" />
        </mxCell>
        <mxCell id="DmRDNTAlGFzrFGz1MmQI-131" value="&lt;font color=&quot;#999999&quot;&gt;CGPA&lt;/font&gt;" style="html=1;shadow=0;dashed=0;shape=mxgraph.bootstrap.rrect;rSize=5;strokeColor=#dddddd;;align=left;spacingLeft=10;fontSize=14;whiteSpace=wrap;rounded=0;" vertex="1" parent="O4ANDgfvFVBwBjS4QOHz-1">
          <mxGeometry x="447" y="850" width="320" height="40" as="geometry" />
        </mxCell>
        <mxCell id="DmRDNTAlGFzrFGz1MmQI-133" value="&lt;font color=&quot;#999999&quot;&gt;Department&lt;/font&gt;" style="html=1;shadow=0;dashed=0;shape=mxgraph.bootstrap.rrect;rSize=5;strokeColor=#dddddd;;align=left;spacingLeft=10;fontSize=14;whiteSpace=wrap;rounded=0;" vertex="1" parent="O4ANDgfvFVBwBjS4QOHz-1">
          <mxGeometry x="50" y="920" width="320" height="40" as="geometry" />
        </mxCell>
        <mxCell id="DmRDNTAlGFzrFGz1MmQI-134" value="" style="shape=image;html=1;verticalAlign=top;verticalLabelPosition=bottom;labelBackgroundColor=#ffffff;imageAspect=0;aspect=fixed;image=https://cdn3.iconfinder.com/data/icons/google-material-design-icons/48/ic_arrow_drop_down_48px-128.png;shadow=0;strokeColor=#222222;strokeWidth=1;fillColor=#FFFFFF;fontSize=24;fontColor=#1A1A1A;" vertex="1" parent="O4ANDgfvFVBwBjS4QOHz-1">
          <mxGeometry x="336" y="926" width="28" height="28" as="geometry" />
        </mxCell>
      </root>
    </mxGraphModel>
  </diagram>
  <diagram id="TmR3mG6HZpyqswdnm1Fj" name="Page-3">
    <mxGraphModel dx="868" dy="450" grid="1" gridSize="10" guides="1" tooltips="1" connect="1" arrows="1" fold="1" page="1" pageScale="1" pageWidth="850" pageHeight="1100" math="0" shadow="0">
      <root>
        <mxCell id="0IXDTn0I_IMYX7ghzk4s-0" />
        <mxCell id="0IXDTn0I_IMYX7ghzk4s-1" parent="0IXDTn0I_IMYX7ghzk4s-0" />
      </root>
    </mxGraphModel>
  </diagram>
</mxfile>
